<svg aria-hidden="true" style="position: absolute; width: 0; height: 0; overflow: hidden;" version="1.1" xmlns="http://www.w3.org/2000/svg" xmlns:xlink="http://www.w3.org/1999/xlink">
<defs>
<symbol id="button" viewBox="0 0 22 32">
<path d="M3.104 0.726c-0.434 0.434-0.702 1.034-0.702 1.696s0.268 1.262 0.702 1.696l11.878 11.882-11.878 11.882c-0.399 0.427-0.644 1.003-0.644 1.636 0 1.325 1.075 2.4 2.4 2.4 0.633 0 1.209-0.245 1.638-0.645l-0.001 0.001 13.578-13.578c0.434-0.434 0.702-1.034 0.702-1.696s-0.268-1.262-0.702-1.696l-13.578-13.578c-0.434-0.434-1.034-0.702-1.696-0.702s-1.262 0.268-1.696 0.702l0-0z"></path>
</symbol>
</defs>
</svg>
